<svg xmlns="http://www.w3.org/2000/svg" width="37" height="42" viewBox="0 0 37 42" fill="none">
<g id="Frame">
<path id="Vector" d="M33.8698 3.00574L31.1357 34.2704L18.9932 37.5989L7.00365 34.194L4.18457 3.00574H33.8698Z" fill="url(#paint0_linear_119_48)"/>
<path id="Vector_2" d="M8.16943 7.81769H29.6106L27.7187 29.3489L18.9804 32.2316L10.3313 29.7089L9.79125 23.4933H13.845L14.3858 26.7361L19.0704 27.997L23.8451 26.5561L24.2051 20.9706L9.61124 21.0606L9.25037 16.646H24.656L24.926 12.0514L8.62032 11.9614L8.16943 7.81769Z" fill="white"/>
<path id="Vector_3" d="M36.7203 0.394676C36.5836 0.243532 36.3892 0.156921 36.1871 0.156921H1.85965C1.65756 0.156921 1.47075 0.243532 1.33319 0.394676C1.19564 0.545819 1.12431 0.74791 1.14554 0.942358L4.29493 35.8964C4.3238 36.1996 4.53268 36.4441 4.82138 36.5307L18.7818 40.4944C18.8463 40.5089 18.9117 40.5156 18.9839 40.5156C19.0416 40.5156 19.1061 40.5089 19.1715 40.4944L33.3119 36.6173C33.6074 36.5384 33.8163 36.2862 33.8452 35.9907L36.908 0.942358C36.9224 0.740268 36.857 0.545819 36.7203 0.394676ZM18.263 38.8437L5.68664 35.2766L2.65273 1.59788H18.263V7.09679H8.16607C7.96398 7.09679 7.76953 7.1834 7.63282 7.33454C7.49611 7.48569 7.43073 7.68013 7.44517 7.88222L7.8485 12.1125C7.88416 12.487 8.19409 12.7681 8.56941 12.7681H18.263V15.9251H9.00246C8.80037 15.9251 8.60592 16.0117 8.46921 16.1629C8.3325 16.314 8.26712 16.5084 8.28155 16.7105L8.69253 21.0351C8.72819 21.4096 9.03812 21.6906 9.41343 21.6906H18.263V26.9662L14.9624 26.0008L14.6525 23.1392C14.6168 22.7716 14.3069 22.4981 13.9392 22.4981H9.62911C9.42702 22.4981 9.23257 22.5848 9.09586 22.7359C8.95915 22.887 8.89377 23.0815 8.9082 23.2836L9.52042 29.77C9.54929 30.0655 9.75817 30.3177 10.0469 30.3967L18.263 32.7462V38.8437ZM19.7048 21.6915H23.5097L23.1641 25.9074L19.7048 26.9161V21.6915ZM19.0917 28.5957L19.7039 28.4157L24.0429 27.1547C24.3308 27.0681 24.5329 26.8159 24.5618 26.5204L25.0084 21.0283C25.0228 20.8262 24.9506 20.6318 24.8207 20.4806C24.684 20.3363 24.4896 20.2497 24.2875 20.2497H19.7039H18.263H10.069L9.79469 17.3669H18.263H19.7048H24.6416C25.016 17.3669 25.326 17.0782 25.3625 16.7037L25.7369 12.1058C25.7514 11.9037 25.6792 11.7092 25.5493 11.5581C25.4126 11.4137 25.2181 11.3271 25.016 11.3271H19.7048H18.263H9.22577L8.95915 8.53775H18.263H19.7048H28.995L27.0488 29.1502L19.7048 31.2908L19.0705 31.4785L18.263 31.2475L10.9121 29.1502L10.4222 23.9391H13.2905L13.586 26.6342C13.6149 26.9229 13.817 27.1675 14.098 27.2464L18.2638 28.4717L18.6892 28.594C18.8183 28.6313 18.9618 28.6313 19.0917 28.5957ZM19.7048 12.7689H24.2382L23.9784 15.9259H19.7048V12.7689ZM32.4467 35.3632L19.7048 38.8514V32.7971L27.9209 30.3975C28.2019 30.3186 28.4108 30.0664 28.4397 29.7709L30.5081 7.88307C30.5226 7.68098 30.458 7.48653 30.3205 7.33539C30.1838 7.18425 29.9893 7.09764 29.7872 7.09764H19.7048V1.59873H35.4016L32.4467 35.3632Z" fill="url(#paint1_linear_119_48)"/>
</g>
<defs>
<linearGradient id="paint0_linear_119_48" x1="19.0272" y1="0.308928" x2="19.0272" y2="40.7662" gradientUnits="userSpaceOnUse">
<stop stop-color="#6DC7FF"/>
<stop offset="0.492" stop-color="#AAB9FF"/>
<stop offset="1" stop-color="#E6ABFF"/>
</linearGradient>
<linearGradient id="paint1_linear_119_48" x1="19.0263" y1="-4.20841" x2="19.0263" y2="42.5306" gradientUnits="userSpaceOnUse">
<stop stop-color="#1A6DFF"/>
<stop offset="1" stop-color="#C822FF"/>
</linearGradient>
</defs>
</svg>