<svg xmlns="http://www.w3.org/2000/svg" width="30" height="45" viewBox="0 0 30 45" fill="none">
  <path fill-rule="evenodd" clip-rule="evenodd" d="M15 22.5C15 18.3579 18.3579 15 22.5 15C26.6421 15 30 18.3579 30 22.5C30 26.6421 26.6421 30 22.5 30C18.3579 30 15 26.6421 15 22.5Z" fill="url(#paint0_linear_124_229)"/>
  <path fill-rule="evenodd" clip-rule="evenodd" d="M0 37.5C0 33.3579 3.35786 30 7.5 30H15V37.5C15 41.6421 11.6421 45 7.5 45C3.35786 45 0 41.6421 0 37.5Z" fill="url(#paint1_linear_124_229)"/>
  <path fill-rule="evenodd" clip-rule="evenodd" d="M15 0V15H22.5C26.6421 15 30 11.6421 30 7.5C30 3.35786 26.6421 0 22.5 0H15Z" fill="url(#paint2_linear_124_229)"/>
  <path fill-rule="evenodd" clip-rule="evenodd" d="M0 7.5C0 11.6421 3.35786 15 7.5 15H15V0H7.5C3.35786 0 0 3.35786 0 7.5Z" fill="url(#paint3_linear_124_229)"/>
  <path fill-rule="evenodd" clip-rule="evenodd" d="M0 22.5C0 26.6421 3.35786 30 7.5 30H15V15H7.5C3.35786 15 0 18.3579 0 22.5Z" fill="url(#paint4_linear_124_229)"/>
  <defs>
    <linearGradient id="paint0_linear_124_229" x1="15" y1="0" x2="15" y2="45" gradientUnits="userSpaceOnUse">
      <stop stop-color="#1A6DFF"/>
      <stop offset="1" stop-color="#8A038C"/>
    </linearGradient>
    <linearGradient id="paint1_linear_124_229" x1="15" y1="0" x2="15" y2="45" gradientUnits="userSpaceOnUse">
      <stop stop-color="#1A6DFF"/>
      <stop offset="1" stop-color="#8A038C"/>
    </linearGradient>
    <linearGradient id="paint2_linear_124_229" x1="15" y1="0" x2="15" y2="45" gradientUnits="userSpaceOnUse">
      <stop stop-color="#1A6DFF"/>
      <stop offset="1" stop-color="#8A038C"/>
    </linearGradient>
    <linearGradient id="paint3_linear_124_229" x1="15" y1="0" x2="15" y2="45" gradientUnits="userSpaceOnUse">
      <stop stop-color="#1A6DFF"/>
      <stop offset="1" stop-color="#8A038C"/>
    </linearGradient>
    <linearGradient id="paint4_linear_124_229" x1="15" y1="0" x2="15" y2="45" gradientUnits="userSpaceOnUse">
      <stop stop-color="#1A6DFF"/>
      <stop offset="1" stop-color="#8A038C"/>
    </linearGradient>
  </defs>
</svg>