<svg xmlns="http://www.w3.org/2000/svg" width="37" height="42" viewBox="0 0 37 42" fill="none">
<g id="Frame">
<path id="Vector" d="M26.4548 13.7774L26.6565 11.3072C26.6763 11.0668 26.4869 10.8618 26.2465 10.8618H10.7462C10.5082 10.8618 10.3205 11.0627 10.3353 11.2998L10.91 20.3571C10.9232 20.5736 11.1035 20.7424 11.3209 20.7424H21.9558C22.1938 20.7424 22.3823 20.9442 22.3667 21.1813L22.1452 24.5251C22.1345 24.6906 22.025 24.8339 21.8677 24.8874L18.589 26.0072C18.5025 26.0368 18.4095 26.0368 18.323 26.0072L15.0418 24.8866C14.8853 24.833 14.7767 24.6922 14.7643 24.5276L14.6334 22.7704C14.6177 22.5555 14.4382 22.3892 14.2225 22.3892H11.465C11.2262 22.3892 11.0376 22.5918 11.0541 22.8297L11.3621 27.2093C11.3736 27.3765 11.4856 27.5189 11.6437 27.5716L18.3255 29.7709C18.4095 29.7981 18.4992 29.7981 18.5832 29.7709L25.2634 27.5725C25.4231 27.5198 25.5351 27.3748 25.5458 27.2069L26.1279 17.8861C26.1427 17.649 25.955 17.4489 25.717 17.4489H14.7157C14.5016 17.4489 14.323 17.2842 14.3057 17.0709L14.104 14.6008C14.085 14.3603 14.2736 14.1553 14.5148 14.1553H26.0448C26.2588 14.1553 26.4375 13.9906 26.4548 13.7774Z" fill="url(#paint0_linear_119_43)"/>
<path id="Vector_2" d="M36.0515 1.24786C35.8959 1.07824 35.6752 0.981079 35.4447 0.981079H3.35385C2.66221 0.981079 1.99855 1.27338 1.53169 1.78388C1.06483 2.29439 0.831809 2.98027 0.893563 3.66862L3.62557 34.6388C3.71532 35.6507 4.43167 36.517 5.40821 36.7961L17.8208 40.3432C18.0431 40.4058 18.2712 40.4379 18.4993 40.4379C18.7274 40.4379 18.9563 40.4058 19.1778 40.3432L31.5904 36.7961C32.5669 36.517 33.2833 35.6499 33.373 34.638L36.2639 1.87693C36.2853 1.6472 36.2079 1.4183 36.0515 1.24786ZM31.7336 34.4922C31.7032 34.8356 31.4702 35.118 31.1392 35.2119L18.7265 38.759C18.5783 38.8027 18.4211 38.8027 18.2729 38.759L5.86025 35.2119C5.53007 35.118 5.29623 34.8356 5.26577 34.4931L2.53376 3.52371C2.51317 3.29069 2.5881 3.06755 2.74701 2.89546C2.90511 2.72255 3.12001 2.62786 3.35385 2.62786H34.5455L31.7336 34.4922Z" fill="url(#paint1_linear_119_43)"/>
<path id="Vector_3" d="M7.4014 33.9397L18.2743 37.0463C18.3484 37.0669 18.4241 37.0776 18.4999 37.0776C18.5756 37.0776 18.6522 37.0669 18.7255 37.0463L29.5984 33.9397C29.9261 33.8458 30.1632 33.5593 30.1928 33.2201L32.668 5.17045C32.6877 4.94072 32.6111 4.71182 32.4547 4.54138C32.2991 4.37176 32.0784 4.2746 31.8479 4.2746H5.15272C4.92217 4.2746 4.7015 4.37176 4.54588 4.54138C4.39026 4.71182 4.31286 4.9399 4.33262 5.17045L6.80691 33.2201C6.83655 33.5593 7.07287 33.8458 7.4014 33.9397ZM30.9487 5.92138L28.6021 32.5119L18.4999 35.3987L8.39688 32.5119L6.05186 5.92138H30.9487Z" fill="url(#paint2_linear_119_43)"/>
</g>
<defs>
<linearGradient id="paint0_linear_119_43" x1="18.4959" y1="10.5118" x2="18.4959" y2="27.845" gradientUnits="userSpaceOnUse">
<stop stop-color="#6DC7FF"/>
<stop offset="1" stop-color="#E6ABFF"/>
</linearGradient>
<linearGradient id="paint1_linear_119_43" x1="18.5759" y1="0.788406" x2="18.5759" y2="41.3815" gradientUnits="userSpaceOnUse">
<stop stop-color="#1A6DFF"/>
<stop offset="1" stop-color="#C822FF"/>
</linearGradient>
<linearGradient id="paint2_linear_119_43" x1="18.5007" y1="0.788363" x2="18.5007" y2="41.3815" gradientUnits="userSpaceOnUse">
<stop stop-color="#1A6DFF"/>
<stop offset="1" stop-color="#C822FF"/>
</linearGradient>
</defs>
</svg>