<svg xmlns="http://www.w3.org/2000/svg" width="39" height="35" viewBox="0 0 39 35" fill="none">
  <path d="M19.0938 21.6369C21.5273 21.6369 23.5 19.6641 23.5 17.2306C23.5 14.7971 21.5273 12.8243 19.0938 12.8243C16.6602 12.8243 14.6875 14.7971 14.6875 17.2306C14.6875 19.6641 16.6602 21.6369 19.0938 21.6369Z" fill="url(#paint0_linear_124_239)"/>
  <path d="M38.1875 17.2306C38.1875 14.4708 35.0715 12.0775 30.2173 10.6271C30.3796 9.86996 30.5162 9.1253 30.6021 8.41296C31.0846 4.38638 30.2474 1.56638 28.2441 0.472162C26.24 -0.621322 23.4163 0.198975 20.29 2.78251C19.8905 3.11224 19.4918 3.47135 19.0938 3.84735C18.6957 3.47061 18.297 3.11224 17.8975 2.78251C14.7712 0.198975 11.9461 -0.620588 9.94344 0.472162C7.94006 1.56565 7.10288 4.38565 7.58536 8.41296C7.67055 9.12604 7.80788 9.86996 7.97017 10.6271C3.11595 12.0775 0 14.4708 0 17.2306C0 19.9904 3.11595 22.3837 7.97017 23.8341C7.80788 24.5912 7.67128 25.3359 7.58536 26.0482C7.10288 30.0748 7.94006 32.8948 9.94344 33.989C10.5229 34.3056 11.1698 34.4612 11.8734 34.4612C13.6043 34.4612 15.6752 33.5161 17.8975 31.6794C18.297 31.3497 18.6957 30.9906 19.0938 30.6146C19.4918 30.9913 19.8905 31.3497 20.29 31.6794C22.5123 33.5161 24.5832 34.4612 26.3141 34.4612C27.0177 34.4612 27.6654 34.3048 28.2441 33.989C30.2474 32.8956 31.0846 30.0756 30.6021 26.0482C30.517 25.3352 30.3796 24.5912 30.2173 23.8341C35.0715 22.3837 38.1875 19.9904 38.1875 17.2306ZM21.2249 3.91344C23.8173 1.77127 26.1195 0.98549 27.5398 1.76099C28.9601 2.53576 29.5439 4.89677 29.1437 8.23671C29.0666 8.88223 28.9432 9.55565 28.7992 10.2408C27.2446 9.85968 25.546 9.56887 23.7379 9.38454C22.5894 7.71383 21.3769 6.18927 20.1336 4.88135C20.4964 4.53913 20.8607 4.21454 21.2249 3.91344ZM24.8946 20.398C24.2682 21.5451 23.6021 22.6415 22.9103 23.6836C21.6978 23.7849 20.4237 23.84 19.0938 23.84C17.7638 23.84 16.4897 23.7849 15.2765 23.6836C14.5854 22.6407 13.9186 21.5451 13.2922 20.398C12.7164 19.3441 12.1914 18.2844 11.7192 17.2306C12.1914 16.1775 12.7164 15.1178 13.2922 14.0632C13.9186 12.9161 14.5847 11.8197 15.2765 10.7776C16.4897 10.6763 17.7638 10.6212 19.0938 10.6212C20.4237 10.6212 21.6978 10.6763 22.911 10.7776C23.6021 11.8205 24.2689 12.9161 24.8953 14.0632C25.4711 15.1171 25.9961 16.1768 26.4683 17.2306C25.9961 18.2837 25.4703 19.3434 24.8946 20.398ZM27.2292 19.057C27.7285 20.3341 28.1383 21.5862 28.46 22.7994C27.3261 23.0755 26.1026 23.309 24.7815 23.4816C25.264 22.7105 25.7362 21.9218 26.1834 21.1015C26.5557 20.4222 26.8994 19.7392 27.2292 19.057ZM19.0938 28.5422C18.1596 27.5574 17.2417 26.4397 16.3553 25.2279C17.2483 25.2801 18.1611 25.3087 19.0938 25.3087C20.0264 25.3087 20.9392 25.2801 21.8322 25.2279C20.9458 26.4397 20.0279 27.5574 19.0938 28.5422ZM13.4053 23.4816C12.0841 23.309 10.8607 23.0755 9.7268 22.7994C10.0485 21.5862 10.4582 20.3333 10.9576 19.057C11.2881 19.74 11.6318 20.4222 12.0026 21.1022C12.4506 21.9218 12.9228 22.7105 13.4053 23.4816ZM10.9583 15.4042C10.459 14.1271 10.0492 12.8743 9.72753 11.6618C10.8614 11.3857 12.0849 11.1522 13.406 10.9796C12.9235 11.7507 12.4513 12.5394 12.0041 13.3597C11.6318 14.039 11.2881 14.722 10.9583 15.4042ZM19.0938 5.91902C20.0279 6.90382 20.9458 8.02154 21.8322 9.23326C20.9392 9.18112 20.0264 9.15248 19.0938 9.15248C18.1611 9.15248 17.2483 9.18112 16.3553 9.23326C17.2417 8.02154 18.1596 6.90382 19.0938 5.91902ZM26.1841 13.3597C25.7369 12.5401 25.2647 11.7514 24.7822 10.9796C26.1034 11.1522 27.3268 11.3857 28.4607 11.6618C28.139 12.875 27.7293 14.1279 27.2299 15.4042C26.8994 14.722 26.5557 14.039 26.1841 13.3597ZM9.04383 8.23744C8.64286 4.89677 9.22742 2.53576 10.6477 1.76172C11.0061 1.56565 11.421 1.47018 11.8822 1.47018C13.2481 1.47018 15.0238 2.31251 16.9626 3.91418C17.3268 4.21527 17.6918 4.53987 18.0553 4.88282C16.812 6.19074 15.5989 7.71457 14.451 9.38601C12.6423 9.57034 10.9437 9.86188 9.38972 10.2423C9.24431 9.55638 9.12167 8.88296 9.04383 8.23744ZM1.46875 17.2306C1.46875 15.3212 4.01703 13.3362 8.31092 12.0459C8.75595 13.7196 9.36622 15.4637 10.1256 17.2306C9.36622 18.9982 8.75595 20.7424 8.31092 22.4153C4.01703 21.125 1.46875 19.14 1.46875 17.2306ZM16.9626 30.5478C14.3702 32.6899 12.0702 33.4772 10.6477 32.7002C9.22742 31.9254 8.64359 29.5644 9.04383 26.2245C9.12094 25.579 9.24431 24.9056 9.38825 24.2204C10.9429 24.6015 12.6415 24.8923 14.4496 25.0767C15.5981 26.7474 16.8106 28.2719 18.0539 29.5799C17.6911 29.9221 17.3268 30.2467 16.9626 30.5478ZM29.1437 26.2238C29.5446 29.5644 28.9601 31.9254 27.5398 32.6995C26.1195 33.4772 23.818 32.6892 21.2249 30.547C20.8607 30.2459 20.4957 29.9213 20.1322 29.5784C21.3755 28.2705 22.5886 26.7466 23.7365 25.0752C25.5452 24.8909 27.2438 24.5993 28.7978 24.2189C28.9432 24.9048 29.0658 25.5782 29.1437 26.2238ZM29.8766 22.4153C29.4315 20.7416 28.8213 18.9975 28.0619 17.2306C28.8213 15.463 29.4315 13.7188 29.8766 12.0459C34.1705 13.3362 36.7188 15.3212 36.7188 17.2306C36.7188 19.14 34.1705 21.125 29.8766 22.4153Z" fill="url(#paint1_linear_124_239)"/>
  <defs>
    <linearGradient id="paint0_linear_124_239" x1="19.0938" y1="-2.26008" x2="19.0938" y2="30.7911" gradientUnits="userSpaceOnUse">
      <stop stop-color="#6DC7FF"/>
      <stop offset="1" stop-color="#E6ABFF"/>
    </linearGradient>
    <linearGradient id="paint1_linear_124_239" x1="19.0938" y1="-0.815932" x2="19.0938" y2="32.9756" gradientUnits="userSpaceOnUse">
      <stop stop-color="#1A6DFF"/>
      <stop offset="1" stop-color="#C822FF"/>
    </linearGradient>
  </defs>
</svg>