<svg xmlns="http://www.w3.org/2000/svg" width="47" height="21" viewBox="0 0 47 21" fill="none">
  <path d="M31.7524 0L31.6055 0.765708C31.3784 2.21683 31.4606 2.632 32.0834 3.17054L32.6846 3.66796L32.0618 6.44488C31.6898 8.10163 31.2335 9.49008 30.9436 9.94637C30.6949 10.34 30.4051 10.9197 30.3424 11.231C30.2386 11.6031 29.8861 11.9772 29.3476 12.3081C28.8717 12.5784 27.9376 13.303 27.2757 13.8846C26.7469 14.3605 26.3827 14.6522 26.1849 14.7776L25.5386 15.2887C25.331 15.6216 25.2135 15.8899 25.1685 16.0936C25.1235 16.3031 25.1489 16.4422 25.2155 16.544C25.2801 16.6419 25.3918 16.7105 25.5445 16.7535C25.7253 16.7959 25.9115 16.8111 26.0968 16.7986C26.516 16.7699 26.9309 16.6964 27.3344 16.5792C27.4715 16.542 27.5792 16.5068 27.6732 16.4755C27.8181 16.2972 28.153 15.9604 28.7464 15.3749C30.3209 13.8219 30.9221 12.972 30.3013 13.2011C30.0722 13.2834 30.176 13.0758 30.5696 12.6606C31.3999 11.8518 31.8758 10.6298 32.8706 6.79737C33.6579 3.77175 33.6579 3.72867 34.2375 3.72867C34.5098 3.72867 35.2794 3.77567 35.2794 3.77567V0H33.513H31.7524ZM39.2705 6.19812C39.1451 6.19812 38.9375 6.38612 38.8142 6.59371C38.587 6.96579 38.8553 7.19296 42.2745 9.32754C44.3053 10.6142 45.9425 11.7108 45.9014 11.795C45.8602 11.8557 44.2015 12.9348 42.2138 14.1783C38.6066 16.4147 38.587 16.4363 38.918 16.8926C39.3331 17.4311 38.918 17.6172 43.6003 14.6953L47 12.5196V10.8825L43.2067 8.54029C41.1563 7.25562 39.3742 6.21967 39.2705 6.19812ZM7.77067 6.42725C7.66687 6.42725 5.88479 7.48475 3.83442 8.74787L0 11.09V12.7272L3.81288 15.1105C5.92788 16.4147 7.70996 17.4938 7.79221 17.4938C7.87446 17.4938 8.04092 17.3058 8.20738 17.0786C8.45608 16.685 8.24654 16.5185 4.74504 14.3017C1.41 12.2082 1.0575 11.9184 1.39042 11.6912C1.598 11.5463 3.1725 10.5711 4.87233 9.51554C8.74788 7.13225 8.54029 7.29675 8.22892 6.79933C8.10554 6.59371 7.896 6.40767 7.77263 6.42725H7.77067ZM24.7768 6.47229C24.205 6.46838 22.9752 7.33983 19.2935 10.3459C19.1349 10.7238 19.1212 10.9843 19.1936 11.1527C19.2406 11.2682 19.3268 11.3485 19.4463 11.4073C19.5638 11.466 19.7165 11.5013 19.8849 11.515C20.2198 11.5444 20.6154 11.4915 20.9346 11.4288L21.15 11.3799C21.2237 11.281 21.3206 11.2017 21.432 11.1488C21.6592 11.0235 22.6129 10.154 23.5666 9.22179C25.2449 7.52196 25.6385 6.75429 24.955 6.50558C24.899 6.48327 24.8372 6.47197 24.7768 6.47229ZM29.0773 7.65317C28.574 7.66687 27.6673 8.25046 26.1144 9.49008C25.335 10.1226 24.8415 10.4634 24.5771 10.5339L23.5509 11.3446C23.1651 12.0496 23.1083 12.4863 23.2102 12.7272C23.2357 12.7866 23.2727 12.8404 23.319 12.8854C23.3654 12.9305 23.4203 12.9659 23.4804 12.9896C23.63 13.0487 23.7896 13.0786 23.9504 13.0777C24.3348 13.0737 24.7169 13.0177 25.0863 12.9113C25.2788 12.8596 25.4689 12.7995 25.6561 12.7311L25.7129 12.7076L25.8167 12.6528C26.0125 12.4002 26.463 11.9243 27.027 11.376C28.809 9.65654 29.7197 8.43454 29.5336 7.97825C29.4494 7.75696 29.3045 7.64533 29.0773 7.65317ZM24.3303 9.76817C24.1854 9.78383 23.8603 10.0345 23.2748 10.5476C22.4288 11.2957 21.5064 11.7265 21.1872 11.5346C21.113 11.5513 21.0386 11.567 20.964 11.5816C20.6389 11.6462 20.2335 11.6991 19.8712 11.6697C19.7005 11.6594 19.5332 11.6175 19.3777 11.5463C19.2311 11.4793 19.114 11.3609 19.0487 11.2134C18.9763 11.0372 18.9763 10.8178 19.0585 10.5378L17.7856 11.5835L14.9049 13.9668V17.8306L24.344 10.3948C24.3422 10.3134 24.3528 10.2322 24.3754 10.154C24.4478 9.89154 24.4439 9.75838 24.3303 9.77013V9.76817ZM28.3919 11.0195C28.249 11.0195 28.01 11.2213 27.6282 11.6266C27.1092 12.1808 26.2926 12.7174 25.8598 12.8271L25.7932 12.8623C25.7222 12.8917 25.6503 12.9191 25.5778 12.9446C25.4603 12.9837 25.3075 13.0307 25.1313 13.0777C24.7788 13.1737 24.3401 13.2618 23.9485 13.252C23.7638 13.2518 23.5809 13.2159 23.4099 13.1463C23.2487 13.0799 23.1196 12.9535 23.0496 12.7938C22.936 12.5216 22.981 12.1397 23.2298 11.5972L14.9029 18.1557V20.5155H18.5611L26.32 14.4212C26.5217 14.1979 26.8253 13.8924 27.2345 13.5105C28.3312 12.4942 28.5799 12.1436 28.5799 11.6247C28.5799 11.2212 28.5349 11.0176 28.3919 11.0176V11.0195ZM30.2386 14.8383L29.5748 15.5002C29.2027 15.8527 28.5388 16.2875 28.0845 16.4735L27.9944 16.5127L27.9885 16.5225L27.9689 16.542C27.9513 16.5557 27.9435 16.5577 27.9298 16.5636C27.7484 16.6322 27.5641 16.693 27.3775 16.7457C26.9626 16.8665 26.5358 16.942 26.1046 16.9709C25.9007 16.984 25.696 16.9662 25.4975 16.918C25.3252 16.8801 25.1731 16.7796 25.0706 16.636C24.9766 16.4911 24.9492 16.2972 25.002 16.0583C25.0441 15.8882 25.1066 15.7238 25.1881 15.5687L18.9273 20.5155H27.2541L28.249 19.3757C29.6159 17.7817 30.2386 16.6419 30.2386 15.6667V14.8383Z" fill="url(#paint0_linear_122_207)"/>
  <defs>
    <linearGradient id="paint0_linear_122_207" x1="23.5" y1="0" x2="23.5" y2="20.5155" gradientUnits="userSpaceOnUse">
      <stop stop-color="#1A6DFF"/>
      <stop offset="1" stop-color="#8A038C"/>
    </linearGradient>
  </defs>
</svg>