<svg xmlns="http://www.w3.org/2000/svg" width="95" height="82" viewBox="0 0 95 82" fill="none">
  <path d="M0 35C0 15.67 15.67 0 35 0H93C94.1046 0 95 0.89543 95 2V47C95 66.33 79.33 82 60 82H2C0.895433 82 0 81.1046 0 80V35Z" fill="url(#paint0_linear_223_93)"/>
  <path d="M39.298 40.4306C43.0551 45.1562 44.6375 47.8763 46.3889 52.8665H35.7425H35.6066C34.7445 52.898 33.9654 53.5361 33.9771 55.0059C33.9884 56.4373 34.7544 56.811 35.5503 56.8392H35.7525H39.5934H44.9116H48.7525H49.6389C50.5855 56.6052 51.0785 55.3172 51.1161 55.3113C51.1538 55.3053 49.4904 49.175 47.5707 45.5322C45.7012 42.5346 44.5472 40.9027 42.2525 38.1011C41.232 39.0499 40.2919 39.8185 39.298 40.4306Z" fill="white"/>
  <path fill-rule="evenodd" clip-rule="evenodd" d="M35.7525 56.8392C36.0904 59.0025 36.4039 60.1438 37.2298 62.0344C37.2298 62.0344 39.3193 65.8251 41.3661 67.5351C43.4539 69.2793 47.5707 70.591 47.5707 70.591C47.5707 70.591 51.0155 71.248 53.1843 70.8966C54.1243 70.7443 55.5479 70.2854 55.5479 70.2854C55.5479 70.2854 57.5236 70.5727 58.7979 70.591C60.3022 70.6126 62.6388 69.9798 62.6388 69.9798C62.6388 69.9798 65.3597 69.0008 66.7752 67.8407C68.1878 66.6829 69.7297 64.1735 69.7297 64.1735C69.7297 64.1735 71.3623 60.9332 71.7979 58.6728C71.9797 57.7292 72.0933 56.228 72.0933 56.228V41.2539C71.943 40.1508 71.4083 39.7342 70.0252 39.7259C68.6766 39.7893 68.2483 40.2886 68.2524 41.2539V56.228C68.2524 56.228 67.9026 59.3474 67.0706 61.1176C66.525 62.2785 65.2979 63.8679 65.2979 63.8679C65.2979 63.8679 64.3043 64.9275 63.5252 65.3959C62.5788 65.9649 60.8661 66.3127 60.8661 66.3127C60.8661 66.3127 62.4573 64.6494 63.2297 63.2567C63.956 61.9473 64.2979 61.0387 64.707 59.5896C65.0313 58.4407 65.2887 56.1301 65.2979 55.9225V39.1147C65.2979 39.1147 68.4401 38.8007 70.3206 38.1011C72.4448 37.3109 73.5366 36.5417 75.3433 35.142C76.7162 34.0784 77.4541 33.4124 78.5933 32.086C79.6356 30.8725 80.9569 28.7245 80.9569 28.7245C80.9569 28.7245 81.0538 27.2663 80.9569 26.8909C80.86 26.5156 80.5633 26.2063 79.7751 25.9742H62.9343C61.9941 26.048 61.7468 26.3927 61.7525 27.5021V35.142C61.7525 35.142 59.3603 34.7635 57.9116 34.2252C56.4547 33.6839 55.668 33.2579 54.3661 32.3916C53.1234 31.5648 52.4505 31.0336 51.4116 29.9469C50.1946 28.674 48.7525 26.2797 48.7525 26.2797C48.4326 25.9916 48.094 26.0102 47.2752 26.2797C47.3184 27.8891 47.2277 29.2758 46.9494 30.5581C46.9494 30.5581 48.4987 32.5123 49.6389 33.614C50.7186 34.6573 51.3437 35.2433 52.5934 36.0588C54.1959 37.1045 55.2237 37.4939 57.0252 38.1011C58.7105 38.6692 61.457 39.1147 61.457 39.1147V56.8392C61.542 56.9199 60.9508 59.6496 60.8661 59.5896C60.8661 59.5896 59.8548 62.0102 58.7979 63.2567C57.6568 64.6026 55.2525 66.0071 55.2525 66.0071C55.2525 66.0071 52.8786 64.7846 51.707 63.5623C50.7154 62.5278 50.2248 61.8311 49.6389 60.5064C49.0451 59.164 48.7525 56.8392 48.7525 56.8392H44.9116C44.9116 56.8392 44.9649 58.5383 45.207 59.5896C45.495 60.84 45.8063 61.5102 46.3889 62.6455C47.3518 64.5225 49.6389 66.9239 49.6389 66.9239C49.6389 66.9239 47.3062 66.7726 45.798 66.0071C44.6775 65.4384 43.7612 64.7427 42.8434 63.8679C41.6894 62.7679 41.1307 61.9834 40.4798 60.5064C39.8879 59.1631 39.5934 56.8392 39.5934 56.8392H35.7525ZM75.3433 29.9469H65.2979V35.142C65.2979 35.142 68.867 34.3959 70.9115 33.3084C72.8202 32.2932 75.3433 29.9469 75.3433 29.9469Z" fill="white"/>
  <path fill-rule="evenodd" clip-rule="evenodd" d="M13.0028 12.8336V55.6169C13.0659 56.6141 13.4397 56.8318 14.48 56.8392H25.4118C26.5399 56.7935 26.8891 56.4844 26.8891 55.3113C26.8891 55.3113 26.8893 47.3658 26.8891 46.1434C26.8889 44.921 26.298 44.6154 24.8209 44.6154C23.3438 44.6154 23.092 45.2787 23.0482 46.1434V53.0191H16.7662V14.9727H32.7982C34.8662 15.2783 36.6283 15.7463 37.8207 16.5007C42.1243 19.2235 44.3207 23.2238 43.1389 29.0301C42.754 30.9211 41.7383 32.975 39.5934 35.142C39.298 34.8364 34.2753 31.4749 31.9116 30.2525C29.548 29.0301 25.7071 27.5021 25.1164 27.5021C24.5256 27.5021 23.3435 27.8077 23.0482 29.0301C22.7529 30.2525 23.0482 40.3371 23.0482 40.3371C23.0888 41.7844 23.4987 42.1571 24.8209 42.1707C24.8209 42.1707 30.1393 42.7819 34.2754 42.1707C36.3271 41.8675 37.8682 41.311 39.298 40.4306C40.2919 39.8185 41.232 39.0499 42.2525 38.1011C42.7235 37.6632 43.2116 37.187 43.73 36.67C45.4943 34.5559 46.4841 32.703 46.9494 30.5581C47.2277 29.2758 47.3184 27.8891 47.2752 26.2797C47.1728 22.4679 46.2791 20.1298 44.0254 17.1119C42.9147 15.6245 41.5633 14.3477 39.5934 13.1392C37.584 11.9064 33.98 11 33.98 11H14.48C13.2982 11 12.9654 11.7133 13.0028 12.8336ZM26.8889 38.1979V32.086C30.8375 33.8087 32.8137 35.0471 36.048 37.5868L33.6844 38.1979H26.8889Z" fill="white"/>
  <defs>
    <linearGradient id="paint0_linear_223_93" x1="39.7813" y1="51.1015" x2="49.8885" y2="78.4298" gradientUnits="userSpaceOnUse">
      <stop stop-color="#4A0102"/>
      <stop offset="1" stop-color="#FF2400"/>
    </linearGradient>
  </defs>
</svg>