<svg xmlns="http://www.w3.org/2000/svg" width="71" height="65" viewBox="0 0 71 65" fill="none">
<g filter="url(#filter0_d_186_7)">
<path d="M29.95 28.0919C32.6573 31.4786 33.7976 33.428 35.0596 37.0043H27.388H27.2901C26.6688 37.0269 26.1074 37.4842 26.1158 38.5376C26.124 39.5634 26.676 39.8312 27.2495 39.8515H27.3952H30.1629H33.9951H36.7628H37.4015C38.0837 39.6837 38.4389 38.7607 38.466 38.7564C38.4932 38.7521 37.2946 34.3587 35.9112 31.7481C34.5641 29.5998 33.7325 28.4302 32.079 26.4225C31.3437 27.1025 30.6662 27.6533 29.95 28.0919Z" fill="white"/>
<path fill-rule="evenodd" clip-rule="evenodd" d="M27.3952 39.8515C27.6387 41.4018 27.8646 42.2197 28.4597 43.5746C28.4597 43.5746 29.9654 46.2913 31.4403 47.5168C32.9447 48.7668 35.9112 49.7069 35.9112 49.7069C35.9112 49.7069 38.3935 50.1777 39.9563 49.9259C40.6337 49.8168 41.6595 49.4879 41.6595 49.4879C41.6595 49.4879 43.0832 49.6938 44.0014 49.7069C45.0854 49.7224 46.7691 49.2689 46.7691 49.2689C46.7691 49.2689 48.7297 48.5672 49.7497 47.7358C50.7677 46.9061 51.8788 45.1077 51.8788 45.1077C51.8788 45.1077 53.0552 42.7855 53.3691 41.1655C53.5001 40.4893 53.582 39.4134 53.582 39.4134V28.682C53.4736 27.8914 53.0884 27.5928 52.0917 27.5869C51.1199 27.6324 50.8113 27.9901 50.8143 28.682V39.4134C50.8143 39.4134 50.5621 41.649 49.9627 42.9176C49.5695 43.7496 48.6852 44.8887 48.6852 44.8887C48.6852 44.8887 47.9693 45.648 47.4078 45.9837C46.7259 46.3915 45.4917 46.6408 45.4917 46.6408C45.4917 46.6408 46.6383 45.4487 47.1949 44.4507C47.7183 43.5123 47.9647 42.861 48.2594 41.8225C48.4931 40.9992 48.6786 39.3432 48.6852 39.1944V27.1489C48.6852 27.1489 50.9495 26.9238 52.3046 26.4225C53.8352 25.8562 54.6219 25.3049 55.9239 24.3018C56.9131 23.5395 57.4449 23.0622 58.2658 22.1117C59.0168 21.242 59.969 19.7026 59.969 19.7026C59.969 19.7026 60.0388 18.6575 59.969 18.3885C59.8991 18.1195 59.6853 17.8979 59.1174 17.7315H46.982C46.3045 17.7844 46.1264 18.0314 46.1304 18.8265V24.3018C46.1304 24.3018 44.4067 24.0305 43.3627 23.6447C42.3129 23.2568 41.7461 22.9515 40.8079 22.3307C39.9125 21.7381 39.4276 21.3574 38.6789 20.5786C37.802 19.6664 36.7628 17.9505 36.7628 17.9505C36.5323 17.744 36.2883 17.7573 35.6983 17.9505C35.7295 19.1038 35.6641 20.0976 35.4636 21.0166C35.4636 21.0166 36.58 22.4172 37.4015 23.2067C38.1796 23.9544 38.63 24.3744 39.5305 24.9588C40.6852 25.7082 41.4259 25.9873 42.724 26.4225C43.9384 26.8296 45.9175 27.1489 45.9175 27.1489V39.8515C45.9788 39.9092 45.5528 41.8655 45.4917 41.8225C45.4917 41.8225 44.763 43.5573 44.0014 44.4507C43.1792 45.4152 41.4466 46.4217 41.4466 46.4217C41.4466 46.4217 39.7361 45.5456 38.8918 44.6697C38.1773 43.9283 37.8237 43.4289 37.4015 42.4796C36.9737 41.5175 36.7628 39.8515 36.7628 39.8515H33.9951C33.9951 39.8515 34.0336 41.0691 34.208 41.8225C34.4155 42.7186 34.6399 43.1989 35.0596 44.0126C35.7535 45.3578 37.4015 47.0788 37.4015 47.0788C37.4015 47.0788 35.7206 46.9703 34.6338 46.4217C33.8265 46.0142 33.1661 45.5156 32.5048 44.8887C31.6732 44.1003 31.2706 43.5381 30.8016 42.4796C30.3751 41.5169 30.1629 39.8515 30.1629 39.8515H27.3952ZM55.9239 20.5786H48.6852V24.3018C48.6852 24.3018 51.2571 23.767 52.7304 22.9877C54.1057 22.2601 55.9239 20.5786 55.9239 20.5786Z" fill="white"/>
<path fill-rule="evenodd" clip-rule="evenodd" d="M11.002 8.31406V38.9754C11.0475 39.6901 11.3168 39.8462 12.0665 39.8515H19.9438C20.7567 39.8187 21.0083 39.5972 21.0083 38.7564C21.0083 38.7564 21.0084 33.0622 21.0083 32.1861C21.0082 31.3101 20.5824 31.0911 19.518 31.0911C18.4536 31.0911 18.2722 31.5664 18.2406 32.1861V37.1137H13.7139V9.84713H25.2663C26.7565 10.0661 28.0263 10.4015 28.8855 10.9422C31.9866 12.8935 33.5693 15.7604 32.7177 19.9216C32.4404 21.2768 31.7085 22.7488 30.1629 24.3018C29.95 24.0828 26.3307 21.6736 24.6275 20.7976C22.9243 19.9216 20.1566 18.8265 19.7309 18.8265C19.3052 18.8265 18.4534 19.0455 18.2406 19.9216C18.0278 20.7976 18.2406 28.0249 18.2406 28.0249C18.2699 29.0621 18.5652 29.3293 19.518 29.339C19.518 29.339 23.3504 29.777 26.3308 29.339C27.8093 29.1217 28.9197 28.7229 29.95 28.0919C30.6662 27.6533 31.3437 27.1025 32.079 26.4225C32.4184 26.1087 32.7701 25.7673 33.1436 25.3968C34.415 23.8817 35.1282 22.5538 35.4636 21.0166C35.6641 20.0976 35.7295 19.1038 35.6983 17.9505C35.6245 15.2186 34.9805 13.543 33.3565 11.3802C32.5562 10.3143 31.5824 9.39915 30.1629 8.53307C28.715 7.64962 26.1179 7 26.1179 7H12.0665C11.2149 7 10.9751 7.51118 11.002 8.31406ZM21.0082 26.4919V22.1117C23.8535 23.3462 25.2776 24.2337 27.6081 26.0538L25.9049 26.4919H21.0082Z" fill="white"/>
<path d="M35.6983 17.9505C35.6245 15.2187 34.9805 13.543 33.3565 11.3802C32.5562 10.3143 31.5824 9.39915 30.1629 8.53307C28.715 7.64962 26.1179 7 26.1179 7H12.0665C11.2149 7 10.9751 7.51118 11.002 8.31406V38.9754C11.0475 39.6901 11.3168 39.8462 12.0665 39.8515H19.9438C20.7567 39.8187 21.0083 39.5972 21.0083 38.7564C21.0083 38.7564 21.0084 33.0622 21.0083 32.1861C21.0082 31.3101 20.5824 31.0911 19.518 31.0911C18.4536 31.0911 18.2722 31.5664 18.2406 32.1861V37.1137H13.7139V9.84713H25.2663C26.7565 10.0661 28.0263 10.4015 28.8855 10.9422C31.9866 12.8935 33.5693 15.7604 32.7177 19.9216C32.4404 21.2768 31.7085 22.7488 30.1629 24.3018C29.95 24.0828 26.3307 21.6736 24.6275 20.7976C22.9243 19.9216 20.1566 18.8265 19.7309 18.8265C19.3052 18.8265 18.4534 19.0455 18.2406 19.9216C18.0278 20.7976 18.2406 28.0249 18.2406 28.0249C18.2699 29.0621 18.5652 29.3293 19.518 29.339C19.518 29.339 23.3504 29.777 26.3308 29.339C27.8093 29.1217 28.9197 28.7229 29.95 28.0919M35.6983 17.9505C36.2883 17.7573 36.5323 17.744 36.7628 17.9505C36.7628 17.9505 37.802 19.6664 38.6789 20.5786C39.4276 21.3574 39.9125 21.7381 40.8079 22.3307C41.7461 22.9515 42.3129 23.2568 43.3627 23.6447C44.4067 24.0305 46.1304 24.3018 46.1304 24.3018V18.8265C46.1264 18.0314 46.3045 17.7844 46.982 17.7315H59.1174C59.6853 17.8979 59.8991 18.1195 59.969 18.3885C60.0388 18.6575 59.969 19.7026 59.969 19.7026C59.969 19.7026 59.0168 21.242 58.2658 22.1117C57.4449 23.0622 56.9131 23.5395 55.9239 24.3018C54.6219 25.3049 53.8352 25.8562 52.3046 26.4225C50.9495 26.9238 48.6852 27.1489 48.6852 27.1489V39.1944C48.6786 39.3432 48.4931 40.9992 48.2594 41.8225C47.9647 42.861 47.7183 43.5123 47.1949 44.4507C46.6383 45.4487 45.4917 46.6408 45.4917 46.6408C45.4917 46.6408 46.7259 46.3915 47.4078 45.9837C47.9693 45.648 48.6852 44.8887 48.6852 44.8887C48.6852 44.8887 49.5695 43.7496 49.9626 42.9176C50.5621 41.649 50.8143 39.4134 50.8143 39.4134V28.682C50.8113 27.9901 51.1199 27.6324 52.0917 27.5869C53.0884 27.5928 53.4736 27.8914 53.582 28.682V39.4134C53.582 39.4134 53.5001 40.4893 53.3691 41.1655C53.0552 42.7855 51.8788 45.1077 51.8788 45.1077C51.8788 45.1077 50.7677 46.9061 49.7497 47.7358C48.7297 48.5672 46.7691 49.2689 46.7691 49.2689C46.7691 49.2689 45.0854 49.7224 44.0014 49.7069C43.0832 49.6938 41.6595 49.4879 41.6595 49.4879C41.6595 49.4879 40.6337 49.8168 39.9563 49.9259C38.3935 50.1777 35.9112 49.7069 35.9112 49.7069C35.9112 49.7069 32.9447 48.7668 31.4403 47.5168C29.9654 46.2913 28.4597 43.5746 28.4597 43.5746C27.8646 42.2197 27.6387 41.4018 27.3952 39.8515M35.6983 17.9505C35.7295 19.1038 35.6641 20.0976 35.4636 21.0166M29.95 28.0919C32.6573 31.4786 33.7976 33.428 35.0596 37.0043H27.388M29.95 28.0919C30.6662 27.6533 31.3437 27.1025 32.079 26.4225M26.9694 37.0043H27.2901M32.079 26.4225C32.4184 26.1087 32.7701 25.7673 33.1436 25.3968C34.415 23.8817 35.1282 22.5538 35.4636 21.0166M32.079 26.4225C33.7325 28.4302 34.5641 29.5998 35.9112 31.7481C37.2946 34.3587 38.4932 38.7521 38.466 38.7564C38.4389 38.7607 38.0837 39.6837 37.4015 39.8515H36.7628M26.9694 39.8515H27.2495M27.3952 39.8515H30.1629M27.3952 39.8515H27.2495M30.1629 39.8515C30.1629 39.8515 30.3751 41.5169 30.8016 42.4796C31.2706 43.5381 31.6732 44.1003 32.5048 44.8887C33.1661 45.5156 33.8265 46.0142 34.6338 46.4217C35.7206 46.9703 37.4015 47.0788 37.4015 47.0788C37.4015 47.0788 35.7535 45.3578 35.0596 44.0126C34.6399 43.1989 34.4155 42.7186 34.208 41.8225C34.0336 41.0691 33.9951 39.8515 33.9951 39.8515M30.1629 39.8515H33.9951M33.9951 39.8515H36.7628M36.7628 39.8515C36.7628 39.8515 36.9737 41.5175 37.4015 42.4796C37.8238 43.4289 38.1773 43.9283 38.8918 44.6697C39.7361 45.5456 41.4466 46.4217 41.4466 46.4217C41.4466 46.4217 43.1792 45.4152 44.0014 44.4507C44.763 43.5573 45.4917 41.8225 45.4917 41.8225C45.5528 41.8655 45.9788 39.9092 45.9175 39.8515V27.1489C45.9175 27.1489 43.9385 26.8296 42.724 26.4225C41.4259 25.9873 40.6852 25.7082 39.5305 24.9588C38.63 24.3744 38.1796 23.9544 37.4015 23.2067C36.58 22.4172 35.4636 21.0166 35.4636 21.0166M27.3932 37.0045C27.3915 37.0045 27.3897 37.0044 27.388 37.0043M27.3932 39.8517C27.3453 39.8531 27.2973 39.8531 27.2495 39.8515M27.388 37.0043H27.2901M27.388 37.0043C27.3552 37.0032 27.3226 37.0031 27.2901 37.0043M27.2901 37.0043C26.6688 37.0269 26.1074 37.4842 26.1158 38.5376C26.124 39.5634 26.676 39.8312 27.2495 39.8515M21.0082 22.1117V26.4919H25.9049L27.6081 26.0538C25.2776 24.2337 23.8535 23.3462 21.0082 22.1117ZM48.6852 20.5786H55.9239C55.9239 20.5786 54.1057 22.2601 52.7304 22.9877C51.2571 23.767 48.6852 24.3018 48.6852 24.3018V20.5786Z" stroke="black"/>
</g>
<!-- <defs>
<filter id="filter0_d_186_7" x="0.5" y="0.5" width="70" height="64" filterUnits="userSpaceOnUse" color-interpolation-filters="sRGB">
<feFlood flood-opacity="0" result="BackgroundImageFix"/>
<feColorMatrix in="SourceAlpha" type="matrix" values="0 0 0 0 0 0 0 0 0 0 0 0 0 0 0 0 0 0 127 0" result="hardAlpha"/>
<feOffset dy="4"/>
<feGaussianBlur stdDeviation="5"/>
<feComposite in2="hardAlpha" operator="out"/>
<feColorMatrix type="matrix" values="0 0 0 0 0 0 0 0 0 0 0 0 0 0 0 0 0 0 0.7 0"/>
<feBlend mode="normal" in2="BackgroundImageFix" result="effect1_dropShadow_186_7"/>
<feBlend mode="normal" in="SourceGraphic" in2="effect1_dropShadow_186_7" result="shape"/>
</filter>
</defs> -->
</svg>